PathFileType	4	(X/Y/Z)	D:\TRACE\spot_10-12-23\spot_body_motion_2_1-platform.trc
DataRate	CameraRate	NumFrames	NumMarkers	Units	OrigDataRate	OrigDataStartFrame	OrigNumFrames
100.00	100.00	      66	5	mm	100.00	4376	      7000
Frame#	Time	Left_Front			Right_Front			Left_Aft			Right_Aft			Post			
		X1	Y1	Z1	X2	Y2	Z2	X3	Y3	Z3	X4	Y4	Z4	X5	Y5	Z5	

4376	43.750	-782.07324	41.50916	-632.35217	790.47632	45.68515	-625.44775	-698.86591	-18.71267	503.99857	718.58258	-18.49559	590.04181	0.75893	794.52344	-911.17981	
4377	43.760	-783.18719	40.16605	-632.62115	789.56476	44.29919	-625.72186	-699.85925	-18.02845	503.90067	717.59467	-17.45542	589.89258	-0.60802	792.64655	-912.96075	
4378	43.770	-784.40802	38.73750	-632.97778	788.30670	43.08504	-626.14056	-701.08722	-17.18340	503.37558	716.42249	-16.47151	589.72351	-1.52466	790.74207	-914.75934	
4379	43.780	-785.56842	37.55431	-633.46484	787.11560	41.63447	-626.69171	-702.25647	-16.09899	503.14334	715.13788	-15.24828	589.36029	-2.83278	788.95013	-916.45276	
4380	43.790	-786.48920	36.44264	-633.71234	786.07153	40.47010	-626.88934	-703.32257	-15.10964	502.95615	714.05493	-14.41521	589.11951	-3.85190	787.09497	-918.48859	
4381	43.800	-787.73126	35.16693	-634.10809	785.08112	39.24162	-627.18945	-704.45685	-14.16194	502.55194	712.82385	-13.20186	588.80389	-4.83363	785.38739	-920.45007	
4382	43.810	-788.79333	33.36972	-634.55743	783.86371	38.05210	-627.64355	-705.60120	-13.31126	502.32849	711.83026	-12.19822	588.60138	-6.24769	783.50214	-922.29260	
4383	43.820	-790.17310	32.29226	-634.91638	782.68433	36.37747	-628.11041	-706.81482	-12.46945	502.03928	710.67975	-11.10160	588.43414	-6.92478	781.55334	-923.98193	
4384	43.830	-791.11609	31.15791	-635.24500	781.50470	35.17426	-628.37372	-707.79474	-11.50685	501.76501	709.56641	-10.00518	588.13727	-8.26031	779.76685	-925.98999	
4385	43.840	-792.28906	29.77634	-635.65540	780.50079	33.90476	-628.87201	-708.97974	-10.60193	501.55447	708.44568	-8.91172	587.83948	-9.32718	777.65161	-928.02826	
4386	43.850	-793.27960	28.32285	-636.05420	779.45868	32.69016	-628.91779	-710.14838	-9.60024	501.10895	707.19489	-7.88138	587.41949	-10.65536	775.87860	-929.97778	
4387	43.860	-794.59119	27.01363	-636.22296	778.11804	31.34207	-629.41284	-711.30634	-8.86214	501.00928	706.12048	-6.78176	587.13312	-11.64842	773.95398	-931.75208	
4388	43.870	-795.65405	25.72314	-636.71075	777.10443	29.81820	-629.81830	-712.43610	-7.67034	500.61786	704.92548	-5.57399	586.88342	-12.69494	772.02808	-933.53687	
4389	43.880	-796.77209	24.33313	-637.10828	775.93683	28.42811	-630.29230	-713.42621	-7.03806	500.70743	703.82977	-4.53439	586.61981	-13.81428	769.94110	-935.49481	
4390	43.890	-797.85803	22.92411	-637.51752	774.87390	27.00261	-630.51917	-714.59686	-6.02982	500.21219	702.75781	-3.32552	586.34839	-15.04858	767.95294	-937.35358	
4391	43.900	-798.90112	21.38747	-637.69464	773.71838	25.89632	-631.04681	-715.83728	-5.00600	499.57968	701.52747	-2.27392	585.96875	-16.30615	765.79999	-938.98828	
4392	43.910	-800.10144	20.11118	-638.19354	772.66211	24.24187	-631.12738	-716.72583	-3.84121	499.44202	700.53613	-0.90055	585.70868	-17.05448	763.83057	-940.87439	
4393	43.920	-801.10962	18.66229	-638.56549	771.51172	22.85607	-631.60791	-718.01385	-2.88998	499.05460	699.33746	0.18661	585.40204	-18.23701	761.71552	-942.83588	
4394	43.930	-802.31769	17.29803	-639.01538	770.63788	21.55093	-632.13678	-719.17969	-1.96471	498.73434	698.26624	1.40124	585.11481	-19.25213	759.64581	-944.97870	
4395	43.940	-803.46259	15.80521	-639.26917	769.08514	19.78743	-632.52283	-720.17865	-1.06554	498.44980	697.17413	2.42179	584.74304	-20.47575	757.50507	-946.91046	
4396	43.950	-804.38593	14.24459	-639.64050	768.35345	18.71477	-632.68732	-721.20770	0.01436	498.02505	696.05957	3.66718	584.28339	-21.35198	755.51691	-948.92273	
4397	43.960	-805.43121	12.94019	-640.00421	767.30798	17.15358	-633.04089	-722.21979	1.10372	497.87216	695.02246	4.76363	584.05548	-22.39436	753.36810	-950.90576	
4398	43.970	-806.62756	11.84082	-640.29614	766.26294	15.94738	-633.41095	-723.32825	2.05414	497.44693	693.81720	6.02743	583.71637	-23.57913	751.22314	-952.90289	
4399	43.980	-807.54675	9.98107	-640.69147	765.16064	14.36314	-633.83014	-724.38849	2.90977	497.13126	692.94891	7.06219	583.46149	-24.51981	749.34906	-955.13885	
4400	43.990	-808.44183	8.47524	-641.13727	764.12787	12.81232	-634.30280	-725.51251	3.84911	496.95203	691.94580	8.20999	583.11389	-25.79946	747.21088	-957.05951	
4401	44.000	-809.77905	7.30066	-641.30139	762.96625	11.57537	-634.49054	-726.53192	5.06254	496.38293	690.94360	9.36820	582.60376	-26.63107	745.10101	-958.82324	
4402	44.010	-810.54224	5.87363	-641.70819	762.04828	9.95419	-634.78741	-727.45526	5.83819	496.12079	690.03778	10.50469	582.46320	-27.51600	743.02362	-960.88141	
4403	44.020	-811.80109	4.72671	-642.08582	761.20807	8.75186	-635.16913	-728.62128	6.82538	495.66922	688.84143	11.74549	582.05481	-28.61727	740.79425	-962.67853	
4404	44.030	-812.53876	3.12452	-642.48322	760.10107	7.32638	-635.57739	-729.66949	7.82610	495.30695	688.04150	12.74035	581.74860	-29.54737	738.64386	-964.67914	
4405	44.040	-813.39044	1.33908	-642.70001	759.04242	5.80364	-635.90698	-730.29633	8.75629	495.21045	686.97784	14.06645	581.32574	-30.52706	736.61060	-966.20941	
4406	44.050	-814.54980	0.31311	-643.03265	758.37738	4.34077	-636.15240	-731.31750	9.78182	494.75012	685.89911	14.99103	580.94098	-31.62691	734.36060	-968.17676	
4407	44.060	-815.61499	-0.98830	-643.40442	757.32458	3.08295	-636.43298	-732.33911	10.65154	494.41711	685.07434	16.15983	580.63409	-32.57599	732.44824	-969.89526	
4408	44.070	-816.53204	-2.55816	-643.72943	756.13336	1.62434	-636.82813	-733.28656	11.54853	494.03320	684.03632	17.16118	580.27325	-33.11291	730.31775	-971.56067	
4409	44.080	-817.41602	-3.98703	-643.96204	755.39160	0.16515	-637.36584	-734.19360	12.64612	493.70160	683.19305	18.43818	580.06873	-34.22305	728.41754	-973.44104	
4410	44.090	-818.01257	-5.33953	-644.30933	754.51080	-1.14238	-637.46722	-734.89459	13.43401	493.66919	682.14520	19.28085	579.59540	-35.09008	726.23523	-975.28180	
4411	44.100	-818.83044	-7.05544	-644.61334	753.74542	-2.66602	-637.74774	-735.93115	14.52312	492.93137	680.60211	20.10073	579.14429	-35.73448	724.11700	-977.10553	
4412	44.110	-819.99371	-8.20479	-644.82697	752.78809	-3.78908	-638.12781	-736.75360	15.42387	492.62088	680.54486	21.73135	578.86359	-36.85492	722.04541	-978.95892	
4413	44.120	-820.77545	-9.33372	-645.27771	751.95117	-5.36046	-638.48615	-737.41754	16.23461	492.30481	679.89691	22.84095	578.56158	-37.89345	719.90179	-981.01221	
4414	44.130	-821.51843	-10.74609	-645.39618	751.27826	-6.54395	-638.62408	-738.44043	17.49396	491.86838	678.80414	24.07762	578.18726	-38.49477	717.90033	-982.79584	
4415	44.140	-822.27191	-12.17880	-645.70453	750.37677	-7.99308	-638.78088	-739.09515	18.19558	491.76096	678.04620	24.83580	577.98083	-39.23028	715.80383	-984.52307	
4416	44.150	-822.84259	-13.59052	-646.15723	749.73267	-9.13431	-639.23547	-740.04889	19.21877	491.17639	677.35022	26.04419	577.50751	-39.92467	713.81000	-986.40070	
4417	44.160	-823.76678	-15.00084	-646.38757	748.98224	-10.67172	-639.38708	-740.91241	20.04268	490.90405	676.47369	27.13718	577.09094	-40.52063	711.78644	-987.83411	
4418	44.170	-824.48242	-16.52605	-646.75232	748.24445	-11.94616	-639.91974	-741.43005	21.10180	490.54501	675.91266	28.33660	576.78589	-41.23169	709.75958	-989.80756	
4419	44.180	-825.20428	-17.59442	-647.03583	747.52478	-13.35490	-640.08936	-742.28632	22.07213	490.37637	675.15839	29.24242	576.48383	-41.98564	707.71014	-991.34381	
4420	44.190	-825.72095	-19.16543	-647.17535	746.72034	-14.69420	-640.41803	-742.74805	22.73843	490.07837	674.56763	30.25132	576.06018	-42.63296	705.70038	-993.04578	
4421	44.200	-826.42340	-20.21716	-647.50122	746.36157	-15.92783	-640.64276	-743.43744	23.69638	489.49091	673.85925	31.32141	575.70892	-43.32195	703.66748	-994.93890	
4422	44.210	-826.97906	-21.31453	-647.61505	745.62396	-17.29177	-640.82800	-743.95795	24.51451	489.21249	673.25385	32.30182	575.41199	-43.81294	701.92712	-996.25629	
4423	44.220	-827.33722	-23.15421	-647.79193	745.15161	-18.57474	-640.93164	-744.47449	25.50403	488.85730	672.60352	33.25276	574.98413	-44.62202	700.03021	-998.22729	
4424	44.230	-828.02740	-24.25309	-648.09900	744.62311	-19.62005	-641.17078	-744.95288	26.04234	488.62268	671.84631	33.94298	574.71448	-45.04937	698.12384	-999.54816	
4425	44.240	-828.67511	-25.07980	-648.41162	744.03955	-20.92463	-641.54919	-745.63409	26.94288	488.16739	671.16132	34.73699	574.31104	-45.65689	696.16046	-1001.38824	
4426	44.250	-828.88690	-26.60130	-648.63733	743.45551	-22.03781	-641.73987	-746.14539	27.51374	487.97809	670.62054	35.44727	574.05774	-45.84619	694.40942	-1002.53754	
4427	44.260	-829.12787	-27.84457	-648.95892	742.98462	-23.05304	-642.08691	-746.52979	28.30332	487.63000	670.87360	37.07343	573.78076	-46.51919	692.61926	-1004.37604	
4428	44.270	-829.39026	-29.05703	-649.22247	742.68677	-24.39008	-642.30988	-746.85840	29.41878	487.37845	670.52454	38.04960	573.40912	-46.81620	690.96301	-1005.50922	
4429	44.280	-830.08551	-29.79901	-649.49255	742.54395	-25.35767	-642.55402	-747.08459	30.07714	487.21634	670.14166	38.88537	572.96338	-46.97652	689.16730	-1006.91962	
4430	44.290	-830.24689	-31.24741	-649.53546	742.12274	-26.59593	-642.67468	-747.56592	30.71064	486.88037	669.86169	39.75999	572.71869	-47.68270	687.60089	-1008.28467	
4431	44.300	-830.27356	-32.44631	-649.89465	742.02808	-27.78909	-642.83691	-747.75623	31.46063	486.39175	669.76520	40.74700	572.33875	-47.17062	685.69061	-1009.55103	
4432	44.310	-830.61572	-33.42701	-649.95184	741.83997	-28.86994	-642.95496	-747.81830	32.16687	486.03003	669.48254	41.46521	572.12701	-47.89831	683.85492	-1010.78400	
4433	44.320	-831.00671	-34.47703	-650.13385	741.80225	-30.17343	-643.16870	-747.95978	33.07562	485.81488	669.40234	42.50624	571.76898	-47.78174	682.10522	-1012.17975	
4434	44.330	-830.89117	-35.71011	-650.31128	741.66888	-30.95782	-643.39142	-748.14404	33.81416	485.38559	669.25269	43.40619	571.65393	-48.09114	680.68964	-1013.25366	
4435	44.340	-831.15631	-36.53235	-650.45459	741.67755	-32.17498	-643.58240	-748.20508	34.40689	485.19815	669.18073	44.26207	571.30701	-47.87783	678.98840	-1014.90851	
4436	44.350	-831.23694	-37.39163	-650.64398	741.67365	-33.12605	-643.65991	-748.34009	35.07963	484.83820	669.13525	44.89949	570.91406	-47.94649	677.33624	-1016.10889	
4437	44.360	-830.96667	-38.94437	-650.76459	741.56592	-34.16724	-643.98468	-748.18628	35.70677	484.54166	669.10693	45.72036	570.62708	-47.95741	675.60059	-1017.41583	
4438	44.370	-831.17535	-39.54621	-650.95972	741.64001	-35.05443	-644.08514	-748.05432	36.29634	484.38394	668.97437	46.54995	570.25928	-47.71817	674.34918	-1018.96033	
4439	44.380	-831.21472	-40.26374	-651.16370	741.55133	-36.07745	-644.13861	-748.24768	37.13024	484.40112	669.05280	47.36604	569.96655	-48.05103	672.69763	-1020.20685	
4440	44.390	-830.95593	-41.55859	-651.27179	741.52405	-36.80125	-644.49084	-748.22601	37.72494	483.80753	669.14258	47.87384	569.68884	-47.77523	671.27618	-1021.41205	
4441	44.400	-830.87012	-42.22248	-651.48633	741.95453	-37.79680	-644.47754	-748.09784	38.32268	483.63708	669.17981	48.52722	569.42963	-47.83755	670.02081	-1022.62939	
